<?xml version="1.0" encoding="UTF-8" standalone="no"?>
<!DOCTYPE svg PUBLIC "-//W3C//DTD SVG 1.0//EN" "http://www.w3.org/TR/2001/PR-SVG-20010719/DTD/svg10.dtd">
<svg width="37cm" height="21cm" viewBox="1159 132 729 409" xmlns="http://www.w3.org/2000/svg" xmlns:xlink="http://www.w3.org/1999/xlink">
  <g>
    <rect style="fill: #ffffff" x="1287.48" y="220.508" width="81.9" height="36"/>
    <rect style="fill: none; fill-opacity:0; stroke-width: 2; stroke: #000000" x="1287.48" y="220.508" width="81.9" height="36"/>
    <text font-size="12.7998" style="fill: #000000;text-anchor:middle;font-family:monospace;font-style:normal;font-weight:normal" x="1328.43" y="242.508">Usuario</text>
  </g>
  <g>
    <rect style="fill: #ffffff" x="1597.27" y="220.508" width="105" height="36"/>
    <rect style="fill: none; fill-opacity:0; stroke-width: 2; stroke: #000000" x="1597.27" y="220.508" width="105" height="36"/>
    <text font-size="12.7998" style="fill: #000000;text-anchor:middle;font-family:monospace;font-style:normal;font-weight:normal" x="1649.77" y="242.508">Puntuacion</text>
  </g>
  <g>
    <polygon style="fill: #ffffff" points="1439.49,237.552 1478.74,214.002 1517.99,237.552 1478.74,261.102 "/>
    <polygon style="fill: none; fill-opacity:0; stroke-width: 2; stroke: #000000" points="1439.49,237.552 1478.74,214.002 1517.99,237.552 1478.74,261.102 "/>
    <text font-size="12.7998" style="fill: #000000;text-anchor:end;font-family:monospace;font-style:normal;font-weight:normal" x="1433.49" y="231.552">1</text>
    <text font-size="12.7998" style="fill: #000000;text-anchor:start;font-family:monospace;font-style:normal;font-weight:normal" x="1523.99" y="231.552">N</text>
    <text font-size="12.7998" style="fill: #000000;text-anchor:middle;font-family:monospace;font-style:normal;font-weight:normal" x="1478.74" y="241.552">Tiene</text>
  </g>
  <line style="fill: none; fill-opacity:0; stroke-width: 2; stroke: #000000" x1="1369.38" y1="238.508" x2="1439.49" y2="237.552"/>
  <line style="fill: none; fill-opacity:0; stroke-width: 2; stroke: #000000" x1="1517.99" y1="237.552" x2="1597.27" y2="238.508"/>
  <g>
    <rect style="fill: #ffffff" x="1240.93" y="443.223" width="174.3" height="36"/>
    <rect style="fill: none; fill-opacity:0; stroke-width: 2; stroke: #000000" x="1240.93" y="443.223" width="174.3" height="36"/>
    <text font-size="12.7998" style="fill: #000000;text-anchor:middle;font-family:monospace;font-style:normal;font-weight:normal" x="1328.08" y="465.223">Fragmento de codigo</text>
  </g>
  <g>
    <polygon style="fill: #ffffff" points="1280.83,346.886 1327.78,318.716 1374.73,346.886 1327.78,375.056 "/>
    <polygon style="fill: none; fill-opacity:0; stroke-width: 2; stroke: #000000" points="1280.83,346.886 1327.78,318.716 1374.73,346.886 1327.78,375.056 "/>
    <text font-size="12.7998" style="fill: #000000;text-anchor:start;font-family:monospace;font-style:normal;font-weight:normal" x="1331.78" y="312.716">N</text>
    <text font-size="12.7998" style="fill: #000000;text-anchor:start;font-family:monospace;font-style:normal;font-weight:normal" x="1331.78" y="397.056">M</text>
    <text font-size="12.7998" style="fill: #000000;text-anchor:middle;font-family:monospace;font-style:normal;font-weight:normal" x="1327.78" y="350.886">Escribe</text>
  </g>
  <line style="fill: none; fill-opacity:0; stroke-width: 2; stroke: #000000" x1="1328.43" y1="256.508" x2="1327.78" y2="318.716"/>
  <line style="fill: none; fill-opacity:0; stroke-width: 2; stroke: #000000" x1="1327.78" y1="375.056" x2="1328.02" y2="442.29"/>
  <g>
    <ellipse style="fill: #ffffff" cx="1252.18" cy="191.827" rx="43.1" ry="18"/>
    <ellipse style="fill: none; fill-opacity:0; stroke-width: 2; stroke: #000000" cx="1252.18" cy="191.827" rx="43.1" ry="18"/>
    <text font-size="12.7998" style="fill: #000000;text-anchor:middle;font-family:monospace;font-style:normal;font-weight:normal" x="1252.18" y="195.827">Nombre</text>
  </g>
  <g>
    <ellipse style="fill: #ffffff" cx="1236.95" cy="237.751" rx="27.7" ry="18"/>
    <ellipse style="fill: none; fill-opacity:0; stroke-width: 2; stroke: #000000" cx="1236.95" cy="237.751" rx="27.7" ry="18"/>
    <text font-size="12.7998" style="fill: #000000;text-anchor:middle;font-family:monospace;font-style:normal;font-weight:normal" x="1236.95" y="241.751">ID</text>
    <line style="fill: none; fill-opacity:0; stroke-width: 2; stroke: #000000" x1="1229.25" y1="245.751" x2="1244.65" y2="245.751"/>
  </g>
  <g>
    <ellipse style="fill: #ffffff" cx="1363.34" cy="188.445" rx="39.25" ry="18"/>
    <ellipse style="fill: none; fill-opacity:0; stroke-width: 2; stroke: #000000" cx="1363.34" cy="188.445" rx="39.25" ry="18"/>
    <text font-size="12.7998" style="fill: #000000;text-anchor:middle;font-family:monospace;font-style:normal;font-weight:normal" x="1363.34" y="192.445">Email</text>
  </g>
  <g>
    <ellipse style="fill: #ffffff" cx="1301.95" cy="151.591" rx="58.5" ry="18"/>
    <ellipse style="fill: none; fill-opacity:0; stroke-width: 2; stroke: #000000" cx="1301.95" cy="151.591" rx="58.5" ry="18"/>
    <text font-size="12.7998" style="fill: #000000;text-anchor:middle;font-family:monospace;font-style:normal;font-weight:normal" x="1301.95" y="155.591">Contraseña</text>
  </g>
  <line style="fill: none; fill-opacity:0; stroke-width: 2; stroke: #000000" x1="1264.65" y1="237.751" x2="1287.48" y2="238.508"/>
  <line style="fill: none; fill-opacity:0; stroke-width: 2; stroke: #000000" x1="1282.66" y1="204.555" x2="1287.48" y2="220.508"/>
  <line style="fill: none; fill-opacity:0; stroke-width: 2; stroke: #000000" x1="1301.95" y1="169.591" x2="1321.13" y2="219.512"/>
  <line style="fill: none; fill-opacity:0; stroke-width: 2; stroke: #000000" x1="1350.82" y1="206.4" x2="1341.67" y2="219.514"/>
  <g>
    <ellipse style="fill: #ffffff" cx="1777.82" cy="238.307" rx="43.1" ry="18"/>
    <ellipse style="fill: none; fill-opacity:0; stroke-width: 2; stroke: #000000" cx="1777.82" cy="238.307" rx="43.1" ry="18"/>
    <text font-size="12.7998" style="fill: #000000;text-anchor:middle;font-family:monospace;font-style:normal;font-weight:normal" x="1777.82" y="242.307">Codigo</text>
    <line style="fill: none; fill-opacity:0; stroke-width: 2; stroke-dasharray: 6; stroke: #000000" x1="1754.72" y1="246.307" x2="1800.92" y2="246.307"/>
  </g>
  <g>
    <ellipse style="fill: #ffffff" cx="1630.36" cy="185.418" rx="46.95" ry="18"/>
    <ellipse style="fill: none; fill-opacity:0; stroke-width: 2; stroke: #000000" cx="1630.36" cy="185.418" rx="46.95" ry="18"/>
    <text font-size="12.7998" style="fill: #000000;text-anchor:middle;font-family:monospace;font-style:normal;font-weight:normal" x="1630.36" y="189.418">Errores</text>
  </g>
  <line style="fill: none; fill-opacity:0; stroke-width: 2; stroke: #000000" x1="1702.27" y1="238.508" x2="1734.72" y2="238.307"/>
  <line style="fill: none; fill-opacity:0; stroke-width: 2; stroke: #000000" x1="1630.36" y1="203.418" x2="1649.77" y2="220.508"/>
  <g>
    <ellipse style="fill: #ffffff" cx="1770.81" cy="160.841" rx="116.25" ry="18"/>
    <ellipse style="fill: none; fill-opacity:0; stroke-width: 2; stroke: #000000" cx="1770.81" cy="160.841" rx="116.25" ry="18"/>
    <text font-size="12.7998" style="fill: #000000;text-anchor:middle;font-family:monospace;font-style:normal;font-weight:normal" x="1770.81" y="164.841">Tiempo total de escritura</text>
  </g>
  <g>
    <ellipse style="fill: #ffffff" cx="1655.42" cy="298.258" rx="93.15" ry="18"/>
    <ellipse style="fill: none; fill-opacity:0; stroke-width: 2; stroke: #000000" cx="1655.42" cy="298.258" rx="93.15" ry="18"/>
    <text font-size="12.7998" style="fill: #000000;text-anchor:middle;font-family:monospace;font-style:normal;font-weight:normal" x="1655.42" y="302.258">Palabras por minuto</text>
  </g>
  <line style="fill: none; fill-opacity:0; stroke-width: 2; stroke: #000000" x1="1655.42" y1="280.258" x2="1652.35" y2="257.513"/>
  <line style="fill: none; fill-opacity:0; stroke-width: 2; stroke: #000000" x1="1749.71" y1="179.21" x2="1702.27" y2="220.508"/>
  <g>
    <ellipse style="fill: #ffffff" cx="1215.45" cy="520.551" rx="54.65" ry="18"/>
    <ellipse style="fill: none; fill-opacity:0; stroke-width: 2; stroke: #000000" cx="1215.45" cy="520.551" rx="54.65" ry="18"/>
    <text font-size="12.7998" style="fill: #000000;text-anchor:middle;font-family:monospace;font-style:normal;font-weight:normal" x="1215.45" y="524.551">Fragmento</text>
  </g>
  <g>
    <ellipse style="fill: #ffffff" cx="1438.15" cy="521.898" rx="154.75" ry="18"/>
    <ellipse style="fill: none; fill-opacity:0; stroke-width: 2; stroke: #000000" cx="1438.15" cy="521.898" rx="154.75" ry="18"/>
    <text font-size="12.7998" style="fill: #000000;text-anchor:middle;font-family:monospace;font-style:normal;font-weight:normal" x="1438.15" y="525.898">Nombre del lenguaje de programacion</text>
  </g>
  <line style="fill: none; fill-opacity:0; stroke-width: 2; stroke: #000000" x1="1415.23" y1="479.223" x2="1428.03" y2="503.05"/>
  <line style="fill: none; fill-opacity:0; stroke-width: 2; stroke: #000000" x1="1240.93" y1="479.223" x2="1226.85" y2="502.056"/>
</svg>
